<svg width="207" height="247" viewBox="0 0 207 247" fill="none" xmlns="http://www.w3.org/2000/svg">
<g opacity="0.3" clip-path="url(#clip0_144_27)">
<g clip-path="url(#clip1_144_27)">
<g clip-path="url(#clip2_144_27)">
<path d="M92.092 92.1042H62.0354V62.0476H92.092V92.1042Z" fill="#D899D9" stroke="#7F3C7D"/>
<path d="M50.8523 40.8523H10.5V0.500002L50.8523 0.5V40.8523Z" fill="#D899D9" stroke="#7F3C7D"/>
<path d="M102.5 26.3705H82.7955L82.7954 6.66628H102.5V26.3705Z" fill="#D899D9" stroke="#7F3C7D"/>
<path d="M206.104 46.9078V76.9644H176.048V46.9078H206.104Z" fill="#D899D9" stroke="#7F3C7D"/>
<path d="M154.853 88.1475V128.5H114.5V88.1475H154.853Z" fill="#D899D9" stroke="#7F3C7D"/>
<path d="M140.371 36.5001V56.2045H120.666V36.5001H140.371Z" fill="#D899D9" stroke="#7F3C7D"/>
<path d="M10.908 88.5002H40.9645V118.557H10.908V88.5002Z" fill="#D899D9" stroke="#7F3C7D"/>
<path d="M52.1475 139.752H92.4997V180.104H52.1475V139.752Z" fill="#D899D9" stroke="#7F3C7D"/>
<path d="M0.500001 154.234H20.2045V173.938H0.5L0.500001 154.234Z" fill="#D899D9" stroke="#7F3C7D"/>
<path d="M62.5 236.092V206.036H92.5566V236.092H62.5Z" fill="#D899D9" stroke="#7F3C7D"/>
<path d="M113.752 194.853V154.5H154.104V194.853H113.752Z" fill="#D899D9" stroke="#7F3C7D"/>
<path d="M128.234 246.5V226.796H147.938V246.5H128.234Z" fill="#D899D9" stroke="#7F3C7D"/>
</g>
</g>
</g>
<defs>
<clipPath id="clip0_144_27">
<rect width="207" height="247" fill="white"/>
</clipPath>
<clipPath id="clip1_144_27">
<rect width="207" height="247" fill="white"/>
</clipPath>
<clipPath id="clip2_144_27">
<rect width="207" height="247" fill="white"/>
</clipPath>
</defs>
</svg>
